<?xml version="1.0" encoding="utf-8"?>
<!-- Generator: Adobe Illustrator 26.5.0, SVG Export Plug-In . SVG Version: 6.00 Build 0)  -->
<svg version="1.1" id="Group_23" xmlns="http://www.w3.org/2000/svg" xmlns:xlink="http://www.w3.org/1999/xlink" x="0px" y="0px"
	 viewBox="0 0 209.3 57.9" style="enable-background:new 0 0 209.3 57.9;" xml:space="preserve">
<style type="text/css">
	.st0{fill:#8FCC95;}
	.st1{fill:#FFFFFF;}
	.st2{fill:none;stroke:#FFFFFF;stroke-width:2.5;}
	.st3{fill:#B8E8A7;}
	.st4{fill:#443322;}
</style>
<circle id="Ellipse_11_3_" class="st0" cx="28.9" cy="28.9" r="28.9"/>
<path id="Intersection_1_2_" class="st1" d="M20.7,40.9c-0.5-0.4-1-0.9-1.5-1.4h22.2c-0.5,0.5-1,0.9-1.5,1.4H20.7z"/>
<g id="Ellipse_11_2_" transform="translate(1.703 1.703)">
	<circle id="Ellipse_13" class="st0" cx="27.2" cy="27.2" r="26.6"/>
	<g id="Group_19">
		<path id="Path_22" class="st0" d="M27.2,1.4c14.3,0,25.9,11.6,25.9,25.9S41.5,53.1,27.2,53.1S1.4,41.5,1.4,27.2c0,0,0,0,0,0
			C1.4,13,12.9,1.4,27.2,1.4C27.2,1.4,27.2,1.4,27.2,1.4 M27.2,0C12.2,0,0,12.2,0,27.2s12.2,27.2,27.2,27.2
			c15,0,27.2-12.2,27.2-27.2C54.5,12.2,42.3,0,27.2,0z"/>
	</g>
</g>
<g id="Ellipse_11_00000151530386312031768170000005312305465003929514_" transform="translate(1.703 1.703)">
	<g id="Group_19_00000029741009561401092720000009084217221347169717_">
		<path id="Path_22_00000054244208823722341330000016866389540850727838_" class="st1" d="M27.2,1.4c14.3,0,25.9,11.6,25.9,25.9
			S41.5,53.1,27.2,53.1S1.4,41.5,1.4,27.2c0,0,0,0,0,0C1.4,13,12.9,1.4,27.2,1.4C27.2,1.4,27.2,1.4,27.2,1.4 M27.2,0
			C12.2,0,0,12.2,0,27.2s12.2,27.2,27.2,27.2c15,0,27.2-12.2,27.2-27.2C54.5,12.2,42.3,0,27.2,0z"/>
	</g>
</g>
<g id="Ellipse_11_1_" transform="translate(12.261 12.261)">
	<circle id="Ellipse_14" class="st0" cx="16.7" cy="16.7" r="16"/>
	<path id="Path_23" class="st1" d="M16.7,1.4C25.2,1.4,32,8.2,32,16.7S25.2,32,16.7,32S1.4,25.2,1.4,16.7C1.4,8.2,8.2,1.4,16.7,1.4
		 M16.7,0C7.5,0,0,7.5,0,16.7s7.5,16.7,16.7,16.7c9.2,0,16.7-7.5,16.7-16.7C33.4,7.5,25.9,0,16.7,0z"/>
</g>
<path id="Path_13_1_" class="st2" d="M37.3,27c0,0,4.7-2.2,5.2,1s-7.7,6-7.7,6"/>
<path id="Path_11_1_" class="st1" d="M17.7,21.1h20.4c0.8,0,1.4,0.6,1.4,1.4l-4.1,13.6c0,0.8-0.6,1.4-1.4,1.4H21.8
	c-0.8,0-1.4-0.6-1.4-1.4l-4.1-13.6C16.4,21.7,17,21.1,17.7,21.1z"/>
<path id="Path_14_1_" class="st0" d="M18.5,25.3c-0.1-0.2,3.2,10.9,3.2,10.9h12.2l3.2-11.1c0,0-1.8,2.5-5.9,1.9S25.5,20.2,18.5,25.3
	z"/>
<path id="Intersection_1_1_" class="st1" d="M19.3,40.9c-0.5-0.4-1-0.9-1.5-1.4h22.2c-0.5,0.5-1,0.9-1.5,1.4H19.3z"/>
<circle id="Ellipse_9_2_" class="st1" cx="25.6" cy="17.2" r="2"/>
<circle id="Ellipse_9_1_" class="st3" cx="31.7" cy="20.4" r="2"/>
<g>
	<path class="st4" d="M65,21h2.8c5.3,0,7.9,2,7.9,6.1c0,1.9-0.8,3.6-2.3,5.2C72,33.5,69.2,34,65.1,34v6.5c-0.1,1.1-0.5,1.7-1.3,1.7
		h-0.3c-0.8,0-1.2-0.5-1.3-1.5v-1.9c0-1.1,0-2-0.1-2.9l0.1-0.9c-0.1-2.3-0.1-4.1-0.1-5.5c0-1.2,0-3.2,0.1-5.9
		c-0.1-0.3-0.1-0.7-0.1-1C62.2,21.5,63.1,21,65,21z M65,23.8c0,0.3,0,0.5,0.1,0.5C65,25.2,65,25.8,65,26.2v5h0.5
		c4.8,0,7.2-0.9,7.2-2.8c0.2-0.6,0.3-0.9,0.3-1.2v-0.5c0-2-1.5-2.9-4.6-2.9H65z"/>
	<path class="st4" d="M81.1,20.1c1.3,0.3,1.9,0.9,1.9,1.8V22c0,1.2-0.6,1.8-1.8,1.8C79.7,23.6,79,23,79,22v-0.1
		C79,21,79.7,20.4,81.1,20.1z M81.1,26.6c0.7,0,1.1,0.6,1.3,1.7v3.1c0,1.8,0,3.5-0.1,5.1c0.1,0.6,0.1,2.1,0.1,4.5
		c-0.2,0.9-0.6,1.3-1.3,1.3h-0.3c-0.8,0-1.2-0.5-1.3-1.5V28.3C79.5,27.2,80,26.6,81.1,26.6z"/>
	<path class="st4" d="M93.5,26.5h1c1.8,0,3.1,0.7,3.8,2v0.4c-0.3,0.8-0.7,1.2-1.4,1.2c-1.6-0.6-2.6-0.9-2.9-0.9
		c-2.1,0-3.5,1-4.4,2.9c-0.3,0.9-0.4,1.7-0.4,2.3v0.3c0,2.5,1.1,4.1,3.2,4.7c0.6,0.1,1,0.1,1,0.1c0.8,0,2.1-0.3,4-1
		c0.3,0,0.7,0.3,1.2,0.9v0.6c0,1-1.4,1.7-4.1,2.2H93c-2.2,0-4.1-1.2-5.6-3.6c-0.6-1.6-0.9-3-0.9-4.1c0-3.8,1.6-6.4,4.9-7.7
		C92.1,26.6,92.8,26.5,93.5,26.5z"/>
	<path class="st4" d="M103.3,26.5h0.6c0.8,0,1.2,0.6,1.2,1.9c1.5-1.2,2.9-1.8,4.2-1.8h0.8c2,0,3.4,1.5,4.2,4.5c0,0.4,0,1.1,0.1,1.9
		c0,6-0.3,9-0.8,9l-0.9,0.3c-0.8,0-1.2-0.6-1.3-1.7c0-1.6,0-4.3,0.1-8.2c-0.2-2-0.9-3.1-2-3.1c-1.4,0-2.9,1.1-4.5,3.3
		c0,1.9,0,4.6-0.1,8.2c-0.2,0.9-0.6,1.3-1.3,1.3h-0.5c-0.4,0-0.7-0.5-1-1.5c0.2-3.3,0.3-6.3,0.3-9.1c-0.1-2-0.1-3-0.1-3.1
		C102.2,27.4,102.6,26.8,103.3,26.5z"/>
	<path class="st4" d="M120.8,20.1c1.3,0.3,1.9,0.9,1.9,1.8V22c0,1.2-0.6,1.8-1.8,1.8c-1.5-0.2-2.2-0.8-2.2-1.8v-0.1
		C118.7,21,119.4,20.4,120.8,20.1z M120.8,26.6c0.7,0,1.1,0.6,1.3,1.7v3.1c0,1.8,0,3.5-0.1,5.1c0.1,0.6,0.1,2.1,0.1,4.5
		c-0.2,0.9-0.6,1.3-1.3,1.3h-0.3c-0.8,0-1.2-0.5-1.3-1.5V28.3C119.2,27.2,119.8,26.6,120.8,26.6z"/>
	<path class="st4" d="M133.3,26.5h1c1.8,0,3.1,0.7,3.8,2v0.4c-0.3,0.8-0.7,1.2-1.4,1.2c-1.6-0.6-2.6-0.9-2.9-0.9
		c-2.1,0-3.5,1-4.4,2.9c-0.3,0.9-0.4,1.7-0.4,2.3v0.3c0,2.5,1.1,4.1,3.2,4.7c0.6,0.1,1,0.1,1,0.1c0.8,0,2.1-0.3,4-1
		c0.3,0,0.7,0.3,1.2,0.9v0.6c0,1-1.4,1.7-4.1,2.2h-1.5c-2.2,0-4.1-1.2-5.6-3.6c-0.6-1.6-0.9-3-0.9-4.1c0-3.8,1.6-6.4,4.9-7.7
		C131.8,26.6,132.5,26.5,133.3,26.5z"/>
	<path class="st4" d="M159.7,21h0.9c1.2,0,2.7,0.6,4.5,1.9l0.3,0.9v0.3c-0.1,0.8-0.5,1.2-1.2,1.2h-0.6c-1.3-0.9-2.3-1.4-2.9-1.4
		h-1.3c-2.6,0-4.4,1.7-5.5,5.1c0,0-0.1,0.8-0.3,2.3V32c0,2.6,1.2,5,3.7,6.9c1,0.3,1.7,0.5,2.2,0.5c1.6,0,3-0.6,4.4-1.9h0.5
		c0.7,0,1.1,0.5,1.3,1.4c0,1.3-1.5,2.3-4.5,3.2c-0.8,0.1-1.6,0.1-2.3,0.1h-0.1c-1.4-0.2-2.8-0.8-4.2-1.9c-2.5-2.7-3.7-5.5-3.7-8.4
		c0-5.4,2.1-8.9,6.4-10.5C157.9,21.1,158.8,21,159.7,21z"/>
	<path class="st4" d="M174.2,25.8c2.6,0,4.3,1.2,5.1,3.7c0.2,0.3,0.3,1.1,0.5,2.6l-0.3,5.4c0.2,1.4,0.3,2.5,0.3,3.3
		c-0.3,0.7-0.8,1-1.4,1c-0.8-0.2-1.2-0.5-1.2-0.9c-1.5,0.9-2.8,1.3-4,1.3c-2.3,0-4-1-5-2.9c-0.2-0.8-0.3-1.5-0.3-2
		c0-2.9,2.5-4.7,7.6-5.2l1.4-0.4c-0.4-2-1.2-2.9-2.4-2.9h-0.8c-1.5,0-2.7,0.5-3.7,1.5h-0.4c-0.8,0-1.3-0.5-1.4-1.5
		c0.8-1.9,2.7-2.8,5.6-2.8H174.2z M170.9,37.6c0,1.2,0.8,1.8,2.4,1.8c2.4-0.3,3.6-1.3,3.6-3.2v-1.7c-4,0.6-6,1.4-6,2.4V37.6z"/>
	<path class="st4" d="M191.1,19.3h0.9c1.2,0.1,1.8,0.6,1.8,1.4V21c-0.1,0.8-0.5,1.2-1.2,1.2c-0.4,0-0.8,0-1.3-0.1
		c-1.3,0-1.9,0.9-1.9,2.8v1.5h2.3c1.1,0,1.7,0.5,1.7,1.4v0.1c0,0.8-0.5,1.2-1.5,1.3h-2.6v11.4c0,1.1-0.5,1.7-1.4,1.7
		c-0.8,0-1.3-0.6-1.4-1.8V29.2h-1.7c-0.7,0-1.2-0.3-1.5-0.9v-0.6c0-0.7,0.6-1.2,1.7-1.3h0.8l0.9,0.1v-1.2
		C186.7,21.3,188.2,19.3,191.1,19.3z"/>
	<path class="st4" d="M203.4,25.8c3.1,0.9,4.6,1.9,4.6,2.8c0.9,1.3,1.3,3.1,1.3,5.2c0,0.7-0.7,1.2-2.2,1.3c-1.3,0.1-2.7,0.1-4.4,0.1
		h-1.4l-0.8,0.1c-0.1-0.1-0.4-0.1-0.6-0.1h-1v0.1c0,2.2,1.5,3.5,4.5,4c0.9,0,2.2-0.3,4-1h0.1c0.8,0.3,1.2,0.7,1.2,1.4
		c0,1.3-1.8,2.2-5.5,2.4c-2.3,0-4.3-1.2-6.1-3.5c-0.5-1.1-0.9-2.7-1-4.7c0-3.8,1.5-6.4,4.5-7.7C201.7,26,202.7,25.8,203.4,25.8z
		 M198.9,32.5c0.6,0,0.9,0,0.9,0.1l1.5-0.1h4.4l0.6-0.1c0-2.4-1.2-3.6-3.5-3.6h-0.4C200.7,28.8,199.5,30,198.9,32.5z"/>
</g>
<g>
	<g>
		<path class="st1" d="M6.8,17.5c0.2-0.4,0.4-0.6,0.6-1c1.2-1.9,2.4-2.3,3.5-1.6c0.5,0.3,0.9,0.9,0.9,1.5c0.1,0.5-0.4,1.4-1.1,2.7
			c0.8,0.3,1.2,0.5,1.9,0.8c0.3,0.2,0.4,0.3,0.3,0.5c0,0,0,0,0,0.1c-0.1,0.2-0.3,0.3-0.6,0.2c-0.2-0.1-0.4-0.1-0.6-0.2
			c-0.3-0.1-0.6-0.2-0.9-0.3c-0.1-0.1-0.2-0.1-0.3-0.1c-0.7-0.2-1.3-0.4-1.7-0.6c-0.4-0.1-1.1-0.5-1.8-0.7c-0.1,0-0.2,0-0.3-0.1
			C6.4,18.6,6.4,18.2,6.8,17.5z M7.6,17.8c0.1,0,0.2,0,0.2,0C8,18,8.2,18.1,8.3,18.1c0.6,0.2,0.9,0.4,1.5,0.6c0-0.1,0.1-0.1,0.1-0.2
			c0.9-1.5,1-2.3,0.6-2.6c-0.1-0.1-0.2-0.2-0.3-0.3c-0.1,0-0.1,0-0.1-0.1c-0.5-0.3-1.2,0-1.8,1.1C8,17.1,7.9,17.3,7.6,17.8z"/>
		<path class="st1" d="M10.4,11.9c0.4-0.3,0.7-0.4,1-0.2c0,0,0,0,0,0c0.3,0.2,0.3,0.6,0,0.9c-0.4,0.4-0.8,0.5-1,0.3c0,0,0,0,0,0
			C10.1,12.7,10.1,12.4,10.4,11.9z M12,13.2c0.2-0.2,0.4-0.2,0.7,0c0.3,0.2,0.4,0.4,0.7,0.6c0.4,0.4,0.9,0.8,1.2,1.1
			c0.1,0.1,0.6,0.4,1.1,0.9c0.2,0.2,0.2,0.4,0.1,0.5c0,0,0,0,0,0.1c-0.1,0.2-0.4,0.2-0.6,0c-1.3-0.9-1.9-1.4-3.1-2.4
			C11.8,13.7,11.8,13.5,12,13.2z"/>
		<path class="st1" d="M15.3,10.2c0.1-0.1,0.2-0.1,0.3-0.2c0.5-0.4,1-0.4,1.5-0.2c0,0,0,0.1,0.1,0.1c0.1,0.2,0,0.4-0.2,0.5
			c-0.6,0.1-0.9,0.3-1,0.3c-0.6,0.4-0.8,1-0.5,1.6c0.1,0.3,0.3,0.5,0.4,0.6c0,0,0,0,0.1,0.1c0.5,0.6,1.1,0.7,1.7,0.5
			c0.2-0.1,0.2-0.1,0.3-0.1c0.2-0.1,0.4-0.4,0.7-0.9c0.1,0,0.2,0,0.4,0.1c0,0.1,0.1,0.1,0.1,0.2c0.2,0.3,0,0.6-0.5,1.2
			c-0.1,0.1-0.2,0.1-0.3,0.2c-0.5,0.4-1.1,0.4-2,0.2c-0.5-0.2-0.9-0.5-1.1-0.7c-0.9-0.8-1-1.8-0.4-2.8
			C14.9,10.6,15.1,10.4,15.3,10.2z"/>
		<path class="st1" d="M18.2,8.4c0.1,0,0.1-0.1,0.2-0.1c0.2-0.1,0.5,0,0.6,0.3c0.3-0.5,0.6-0.9,1.1-1.1c0.1,0,0.1-0.1,0.2-0.1
			c0.6-0.3,1.3,0,1.8,0.8c0,0.1,0.1,0.3,0.2,0.5c0.7,1.6,0.9,2.6,0.7,2.6c-0.1,0.1-0.1,0.1-0.2,0.1c-0.2,0.1-0.4-0.1-0.5-0.4
			c-0.2-0.4-0.5-1.3-0.9-2.3c-0.2-0.5-0.6-0.8-1-0.6c-0.4,0.2-0.7,0.7-0.9,1.5c0.3,0.5,0.8,1.3,1.2,2.2c0.1,0.2,0,0.4-0.1,0.5
			c0,0-0.1,0-0.1,0.1c-0.1,0-0.3-0.1-0.5-0.3c-0.5-0.7-0.9-1.7-1.4-2.4c-0.3-0.5-0.5-0.8-0.5-0.8C18.1,8.8,18.1,8.6,18.2,8.4z"/>
		<path class="st1" d="M23.4,4.5c0.5,0,0.8,0.1,0.8,0.4c0,0,0,0,0,0c0.1,0.4-0.1,0.6-0.5,0.7c-0.5,0.1-0.8-0.1-0.9-0.4c0,0,0,0,0,0
			C22.7,4.9,22.9,4.7,23.4,4.5z M23.9,6.4c0.2-0.1,0.4,0.1,0.5,0.4c0.1,0.4,0.1,0.6,0.2,0.9c0.1,0.5,0.2,1.1,0.3,1.5
			c0,0.2,0.3,0.7,0.3,1.3c0,0.2-0.1,0.4-0.2,0.5c0,0,0,0-0.1,0c-0.2,0-0.3-0.1-0.4-0.4c-0.4-1.5-0.6-2.2-1-3.7
			C23.4,6.7,23.5,6.5,23.9,6.4z"/>
		<path class="st1" d="M28.1,5.8c0.1,0,0.2,0,0.3,0c0.6,0,1.1,0.2,1.3,0.6c0,0,0,0.1,0,0.1c-0.1,0.2-0.3,0.3-0.5,0.3
			c-0.5-0.2-0.8-0.3-1-0.3c-0.7,0-1.1,0.4-1.3,1c-0.1,0.3-0.1,0.5,0,0.7c0,0,0,0,0,0.1c0.1,0.8,0.4,1.2,1,1.4c0.2,0,0.3,0,0.3,0
			c0.2,0,0.6-0.1,1.1-0.3c0.1,0,0.2,0.1,0.3,0.3c0,0.1,0,0.1,0,0.2c0,0.3-0.4,0.5-1.1,0.7c-0.2,0-0.2,0-0.4,0c-0.6,0-1.1-0.3-1.6-1
			c-0.2-0.5-0.4-0.9-0.4-1.2c-0.2-1.2,0.2-2,1.3-2.5C27.6,5.9,27.8,5.9,28.1,5.8z"/>
		<path class="st1" d="M37.6,5.7c0.1,0,0.2,0.1,0.3,0.1c0.4,0.2,0.9,0.6,1.3,1.2c0,0.1,0,0.2,0,0.3c0,0,0,0,0,0.1
			c-0.1,0.2-0.3,0.2-0.5,0.1c-0.1,0-0.1-0.1-0.2-0.1c-0.3-0.4-0.6-0.7-0.8-0.8c-0.2-0.1-0.3-0.1-0.4-0.2c-0.9-0.3-1.7,0-2.3,0.9
			c0,0-0.1,0.2-0.3,0.7c0,0.1,0,0.1-0.1,0.2c-0.2,0.8-0.1,1.6,0.4,2.3c0.2,0.2,0.4,0.3,0.5,0.3c0.4,0.1,0.9,0.1,1.4-0.1
			c0.1,0,0.1,0,0.1,0.1c0.2,0.1,0.2,0.3,0.1,0.5c-0.1,0.3-0.7,0.4-1.6,0.4c-0.2-0.1-0.4-0.1-0.6-0.2c0,0,0,0,0,0
			c-0.3-0.2-0.6-0.5-0.9-0.9c-0.4-1-0.6-1.9-0.3-2.8C34,6.4,35,5.5,36.6,5.5C36.9,5.5,37.2,5.5,37.6,5.7z"/>
		<path class="st1" d="M41.5,9.3c0.8,0.5,1,1.2,0.7,1.9c0,0.1-0.1,0.3-0.4,0.7c-0.5,0.5-0.7,0.7-1.2,1.2c-0.3,0.4-0.5,0.6-0.6,0.8
			c-0.2,0.1-0.4,0.1-0.5,0c-0.1-0.1-0.2-0.3-0.1-0.4c-0.5,0-0.9-0.1-1.1-0.3c-0.5-0.3-0.7-0.8-0.7-1.5c0.1-0.2,0.2-0.4,0.3-0.6
			c0.5-0.8,1.5-0.9,2.9-0.2c0.2,0.1,0.3,0.1,0.5,0.2c0.3-0.5,0.3-1-0.1-1.2C41,10,41,10,40.9,10c-0.4-0.3-0.9-0.3-1.3-0.2
			c0,0-0.1,0-0.1-0.1c-0.2-0.1-0.3-0.3-0.2-0.6C39.8,8.7,40.6,8.7,41.5,9.3C41.5,9.3,41.5,9.3,41.5,9.3z M38.5,11.8
			c-0.2,0.3-0.1,0.6,0.3,0.8c0.6,0.3,1.1,0.2,1.5-0.2c0.1-0.2,0.2-0.2,0.3-0.4c-1.1-0.6-1.8-0.6-2-0.4
			C38.6,11.7,38.6,11.7,38.5,11.8z"/>
		<path class="st1" d="M47.9,12c0.1,0.1,0.1,0.2,0.2,0.3c0.3,0.4,0.3,0.7,0.1,0.8c0,0,0,0-0.1,0c-0.2,0.1-0.4,0.1-0.6-0.1
			c-0.1-0.1-0.2-0.3-0.3-0.4c-0.3-0.4-0.7-0.4-1.2,0c-0.2,0.1-0.2,0.2-0.4,0.3c0.2,0.2,0.3,0.4,0.6,0.6c0.3,0.3,0.3,0.6,0,0.7
			c0,0,0,0,0,0c-0.2,0.1-0.4,0.1-0.7-0.2c-0.2-0.3-0.4-0.4-0.6-0.7c-1.1,0.9-1.7,1.4-2.8,2.3c-0.3,0.2-0.5,0.2-0.7,0.1
			c-0.2-0.2-0.1-0.4,0.1-0.7c1.1-1,1.6-1.4,2.7-2.4c-0.2-0.2-0.3-0.2-0.4-0.4c-0.2-0.2-0.2-0.3-0.2-0.6c0.1-0.1,0.1-0.1,0.1-0.1
			c0.2-0.2,0.4-0.1,0.7,0.1c0.1,0.1,0.1,0.1,0.2,0.2c0.1,0.1,0.1,0.1,0.2,0.3c0.1-0.1,0.2-0.1,0.3-0.2C46.1,11.1,47.1,11.1,47.9,12z
			"/>
		<path class="st1" d="M49,17c0.4,1.2,0.3,1.8,0,1.9c-0.3,0.4-0.7,0.8-1.4,1c-0.2,0.1-0.5-0.1-0.7-0.5c-0.2-0.4-0.5-0.8-0.8-1.3
			c-0.1-0.2-0.2-0.2-0.3-0.4c-0.1-0.1-0.1-0.1-0.2-0.2c0-0.1,0-0.1-0.1-0.2c-0.1-0.1-0.1-0.2-0.2-0.3c0,0,0,0,0,0
			c-0.6,0.4-0.7,0.9-0.4,1.8c0.1,0.2,0.5,0.6,0.9,1c0,0,0,0,0,0c0,0.3-0.1,0.4-0.3,0.5c-0.4,0.2-1-0.3-1.6-1.2
			c-0.4-0.5-0.4-1.2-0.1-2.1c0.2-0.3,0.6-0.7,1.1-1.1c1-0.7,2.1-0.7,3.1,0C48.6,16.5,48.9,16.8,49,17z M46.2,16.6
			c0.1,0.2,0.2,0.3,0.1,0.3c0.1,0.2,0.2,0.3,0.3,0.4c0.3,0.5,0.5,0.8,0.8,1.3c0.1,0.1,0.1,0.1,0.2,0.2c0.7-0.3,0.9-0.9,0.4-1.6
			c0,0,0-0.1-0.1-0.1C47.6,16.6,47,16.4,46.2,16.6z"/>
	</g>
</g>
<g>
	<g>
		<path class="st1" d="M12,36.9c0.5,0.8,0.7,1.5,0.6,2.1c0,0.1-0.1,0.1-0.1,0.1c-0.1,0.1-0.3,0-0.6-0.3c-0.1-0.6-0.2-1-0.3-1.1
			c0-0.1-0.1-0.2-0.2-0.4c0-0.1-0.1-0.1-0.1-0.2c-0.5-0.7-0.8-0.9-1.2-0.7c0,0-0.1,0-0.1,0.1c-0.3,0.2-0.1,1.2,0.4,2.6
			c0.3,0.9,0.2,1.7-0.2,2c-0.1,0.1-0.1,0.1-0.2,0.2c-0.4,0.3-1.1,0.2-1.9-0.6c-0.2-0.3-0.5-0.6-0.7-1c-0.7-1.2-0.9-2.3-0.6-3.1
			c0,0,0,0,0.1,0c0.2-0.1,0.5,0.1,0.6,0.5c0.1,0.1,0,0.6,0,1.2c0.2,0.5,0.3,0.9,0.5,1.1c0.5,0.9,1,1.2,1.5,0.9
			c0.4-0.3,0.1-1.2-0.3-2.6c-0.3-1.1-0.1-1.9,0.5-2.2c0,0,0,0,0,0c0.6-0.3,1.3,0.1,2.1,0.9C11.8,36.6,11.9,36.7,12,36.9z"/>
		<path class="st1" d="M14.6,40.1c0.2,0.4,0.3,0.6,0.1,0.8c0,0,0,0,0,0c-0.2,0.2-0.5,0.2-0.7-0.1c-0.3-0.4-0.3-0.7-0.2-0.9
			c0,0,0,0,0,0C14,39.7,14.2,39.8,14.6,40.1z M13.4,41.3c0.2,0.2,0.2,0.4,0,0.6c-0.2,0.2-0.3,0.3-0.6,0.6c-0.3,0.3-0.7,0.6-1,0.9
			c-0.1,0.1-0.4,0.6-0.8,0.9c-0.2,0.1-0.4,0-0.6-0.2c0,0,0,0-0.1-0.1c-0.2-0.2-0.2-0.5-0.1-0.7c0.9-0.9,1.4-1.3,2.3-2.2
			C12.9,40.9,13.1,41,13.4,41.3z"/>
		<path class="st1" d="M15.3,43.1c0.1,0.1,0.1,0.1,0.2,0.1c0.2,0.2,0.2,0.4,0,0.7c0.6,0.1,1.1,0.3,1.4,0.5c0.1,0.1,0.1,0.1,0.2,0.2
			c0.6,0.4,0.8,1,0.6,1.8c-0.1,0.1-0.1,0.3-0.2,0.5c-0.6,1.3-1.2,2-1.4,1.9c-0.1-0.1-0.2-0.1-0.3-0.1c-0.3-0.2-0.3-0.4-0.2-0.6
			c0.2-0.3,0.7-1,1.2-1.8c0.2-0.4,0.2-0.8-0.2-1.1c-0.4-0.3-1-0.4-1.8-0.3c-0.3,0.4-0.7,1.1-1.3,1.7c-0.1,0.1-0.4,0.1-0.6-0.1
			c-0.1-0.1-0.1-0.1-0.2-0.1c-0.1-0.1-0.2-0.4-0.1-0.6c0.3-0.5,1.2-1.2,1.6-1.7c0.3-0.4,0.5-0.6,0.5-0.6C14.8,43.1,15,43,15.3,43.1z
			"/>
		<path class="st1" d="M21.6,46.9c0.1,0,0.2,0.1,0.3,0.1c0.6,0.2,0.9,0.5,1.1,0.9c0,0,0,0.1,0,0.1c-0.1,0.2-0.3,0.2-0.5,0.1
			c-0.5-0.3-0.8-0.5-0.9-0.5c-0.7-0.2-1.2-0.2-1.7,0.1c-0.2,0.2-0.3,0.3-0.4,0.5c0,0,0,0,0,0.1c-0.3,0.6-0.1,1.2,0.7,1.6
			c0.2,0.1,0.3,0.2,0.4,0.2c0.3,0.1,0.8,0.2,1.5,0.2c0.1,0,0.2,0.2,0.4,0.3c0,0.1,0,0.1,0,0.2c-0.1,0.3-0.6,0.3-1.7,0.1
			c-0.2-0.1-0.3-0.1-0.6-0.2c-0.8-0.3-1.4-0.9-1.7-1.7c0-0.5,0-0.9,0.2-1.1c0.4-0.9,1.2-1.2,2.4-1.1C21.1,46.8,21.4,46.8,21.6,46.9z
			"/>
		<path class="st1" d="M26.5,47.9c1,0.4,1.5,0.6,1.5,0.9c0.3,0.4,0.4,0.8,0.4,1.4c0,0.2-0.3,0.3-0.8,0.3c-0.5,0-1,0-1.6-0.1
			c-0.2,0-0.3,0-0.5-0.1c-0.1,0-0.2,0-0.3,0c-0.1,0-0.1-0.1-0.2-0.1c-0.1,0-0.2,0-0.4-0.1c0,0,0,0,0,0c-0.1,0.6,0.4,1,1.5,1.3
			c0.3,0,0.9,0,1.5-0.1c0,0,0,0,0,0c0.3,0.1,0.4,0.2,0.4,0.4c0,0.4-0.8,0.6-2.2,0.5c-0.9-0.1-1.6-0.5-2.2-1.3
			c-0.1-0.3-0.2-0.8-0.1-1.3c0.2-0.9,0.9-1.5,1.9-1.7C26,47.9,26.3,47.9,26.5,47.9z M24.8,49.4c0.2,0,0.3,0.1,0.3,0.1
			c0.2,0,0.3,0,0.5,0.1c0.6,0.1,0.9,0.1,1.5,0.2c0.1,0,0.1,0,0.2,0c0-0.6-0.3-1-1.1-1.1c-0.1,0-0.1,0-0.1,0
			C25.6,48.6,25.1,48.8,24.8,49.4z"/>
		<path class="st1" d="M34.2,46.1c0.8-0.2,1.4,0,1.9,0.5c0.1,0.1,0.2,0.2,0.2,0.4c0,0.1,0.1,0.2,0.1,0.3c0.2,0.7-0.1,1.9-1.5,3.4
			c0,0,0,0,0,0c0.5-0.1,0.8-0.3,1-0.3c0.2-0.1,0.3-0.1,0.4-0.1c0.1,0,0.3-0.1,0.5-0.1c0.1-0.1,0.2-0.1,0.4-0.2c0,0,0,0,0,0
			c0.4-0.1,0.6-0.1,0.7,0.1c0,0,0,0,0,0.1c0.1,0.2-0.1,0.4-0.4,0.5c-0.4,0.1-0.6,0.2-1,0.3c-0.6,0.2-1.7,0.7-3,0.8
			c-0.3,0-0.5-0.1-0.5-0.2c0,0,0,0,0-0.1c0-0.1,0.5-0.6,1.3-1.4c1-1.1,1.3-2.1,1.2-2.7c-0.2-0.6-0.6-0.9-1.2-0.7c0,0,0,0-0.1,0
			c-0.4,0.1-0.7,0.3-1.1,0.7c-0.1,0-0.1,0-0.2,0c-0.2,0-0.4-0.1-0.5-0.3C32.4,47,33,46.6,34,46.2C34.1,46.1,34.1,46.1,34.2,46.1z"/>
		<path class="st1" d="M38.8,44.1c0,0,0.1,0,0.1-0.1c0.8-0.5,1.7-0.4,2.6,0.5c0.1,0.1,0.2,0.2,0.4,0.4c0.2,0.3,0.3,0.4,0.5,0.7
			c0.6,0.9,0.6,1.8,0,2.8c-0.2,0.2-0.5,0.4-0.9,0.6c0,0,0,0,0,0c-1.2,0.7-2.3,0.2-3.2-1.2c0,0,0-0.1-0.1-0.1
			c-0.4-0.9-0.5-1.8-0.3-2.5C38,44.7,38.4,44.3,38.8,44.1z M38.9,47.2c0,0.1,0.1,0.1,0.1,0.2c0.3,0.6,0.7,0.9,1.2,1.1
			c0.3,0.1,0.7,0,1-0.2c0.5-0.3,0.7-0.8,0.5-1.5c-0.1-0.4-0.3-0.7-0.5-1c-0.7-1.1-1.5-1.3-1.9-1.2c0,0-0.1,0-0.2,0.1
			c-0.5,0.5-0.7,0.9-0.5,1.2C38.5,45.9,38.6,46.3,38.9,47.2z"/>
		<path class="st1" d="M42.6,41.3c0.6-0.6,1.2-0.8,2-0.5c0.1,0,0.2,0.1,0.4,0.2c0.1,0.1,0.2,0.1,0.3,0.2c0.5,0.5,0.7,1.8,0.1,3.9
			c0,0,0,0,0,0c0.4-0.4,0.6-0.7,0.8-0.8c0.1-0.1,0.2-0.2,0.3-0.3c0.1-0.1,0.2-0.2,0.4-0.4c0.1-0.1,0.2-0.2,0.3-0.4c0,0,0,0,0,0
			c0.3-0.3,0.5-0.4,0.7-0.3c0,0,0,0,0,0c0.1,0.1,0.1,0.4-0.2,0.7c-0.3,0.4-0.4,0.5-0.8,0.9c-0.4,0.5-1.2,1.5-2.3,2.3
			c-0.3,0.2-0.5,0.2-0.6,0.1c0,0,0,0,0-0.1c-0.1-0.1,0.2-0.8,0.5-1.9c0.4-1.5,0.3-2.6-0.1-3c-0.5-0.5-0.9-0.4-1.4,0.1
			c0,0,0,0-0.1,0.1c-0.3,0.3-0.5,0.7-0.6,1.2c-0.1,0-0.1,0.1-0.1,0.1c-0.2,0.2-0.4,0.1-0.6,0c-0.2-0.3,0.1-0.9,0.9-1.9
			C42.5,41.3,42.5,41.3,42.6,41.3z"/>
		<path class="st1" d="M46.3,36.5c0-0.1,0.1-0.1,0.1-0.2c0.2-0.4,0.5-0.5,0.7-0.4c0,0,0,0,0,0.1c0.1,0.1,0.2,0.1,0.4,0.1
			c0.8,0.4,1.2,0.6,1.9,1.1c0,0,0.1,0,0.1-0.1c0.1-0.2,0.2-0.4,0.3-0.6c0.1-0.3,0.3-0.4,0.6-0.4c0.2,0.2,0.2,0.4,0,0.7
			c-0.1,0.3-0.2,0.4-0.3,0.7c0.4,0.2,0.6,0.3,1,0.5c0.1,0.1,0.2,0.3,0,0.6C51,38.8,51,38.9,50.9,39c-0.2,0.2-0.4,0.3-0.5,0.2
			c-0.4-0.2-0.6-0.3-0.9-0.6c0,0,0,0,0,0c-0.3,0.6-0.9,1.7-1.7,2.6c-0.2,0.2-0.4,0.3-0.6,0.1c-0.2-0.1-0.3-1.5-0.8-3.9
			C46.2,37.1,46.2,36.7,46.3,36.5z M47.2,37.3c0.3,1,0.4,1.6,0.7,2.7c0.4-0.7,0.6-1,1-1.7c0,0-0.1,0-0.1-0.1c-0.1,0-0.1-0.1-0.2-0.2
			c-0.1,0-0.1,0-0.2,0c-0.1-0.1-0.2-0.2-0.3-0.2c-0.2-0.1-0.5-0.3-0.8-0.4C47.3,37.3,47.3,37.3,47.2,37.3
			C47.2,37.3,47.2,37.3,47.2,37.3z"/>
	</g>
</g>
</svg>
